<svg xmlns="http://www.w3.org/2000/svg" xmlns:xlink="http://www.w3.org/1999/xlink" version="1.1" width="182.167" height="153.125" enable-background="new 0 0 182.167 153.125" xml:space="preserve" style=""><rect id="backgroundrect" width="100%" height="100%" x="0" y="0" fill="none" stroke="none"/>








<g class="currentLayer" style=""><title>Layer 1</title><path fill="#B73835" d="M59.549,8.306h122.662v142.955H59.549c-32.188,0-58.28-26.093-58.28-58.28V66.586  C1.269,34.398,27.361,8.306,59.549,8.306" id="svg_1"/><path fill="#f79494" d="M64.983,1.29h117.228v142.955H64.983c-32.187,0-58.28-26.093-58.28-58.279V59.57  C6.703,27.384,32.797,1.29,64.983,1.29" id="svg_2" class="" fill-opacity="1"/><rect x="114.19100189208984" y="67.62799835205078" fill="#231F20" width="68.21700286865234" height="20.893999099731445" id="svg_3"/><path fill="#FFFFFF" d="M25.384,76.885c0-27.934,22.649-50.579,50.575-50.579c27.936,0,50.578,22.646,50.578,50.579  c0,0.977-0.027,1.948-0.08,2.911c-1.51,26.574-23.54,47.665-50.498,47.665C48.033,127.461,25.384,104.814,25.384,76.885" id="svg_4"/><path fill="none" stroke="#000000" stroke-width="2" stroke-miterlimit="10" d="M25.384,76.885  c0-27.934,22.649-50.579,50.575-50.579c27.936,0,50.578,22.646,50.578,50.579c0,0.977-0.027,1.948-0.08,2.911  c-1.51,26.574-23.54,47.665-50.498,47.665C48.033,127.461,25.384,104.814,25.384,76.885z" id="svg_5"/><path d="M57.153,114.171c0-6.205,0-12.411,0-18.617c2.723,0.108,5.525,0.194,8.363,0.255c0,6.85,0,13.696,0,20.545  c-0.001,4.787,6.121,5.725,6.121,0.777c0-7.077,0-14.154,0-21.23c2.871,0.023,5.767,0.023,8.646-0.002v21.232  c-0.001,4.946,6.121,4.01,6.121-0.777V95.809c2.841-0.062,5.636-0.146,8.364-0.256c0,6.206,0,12.412,0,18.618  c0,4.337,5.719,1.521,5.719-2.336c0-6.517,0-13.03,0-19.546c0-1.629-1.268-3.113-2.827-3.243c-3.624-0.299-7.404-0.519-11.255-0.659  V69.821c0-4.785-6.122-5.724-6.121-0.779v19.187c-2.88-0.041-5.775-0.041-8.646,0.002c0-6.391,0-12.792,0-19.188  c0-4.944-6.122-4.007-6.121,0.779c0,6.188,0,12.382,0,18.565c-2.838,0.104-5.641,0.252-8.363,0.439c0-5.604,0-11.217,0-16.824  c0-4.336-5.722-1.52-5.722,2.337c0,12.499,0,24.997,0,37.495C51.432,115.691,57.153,118.51,57.153,114.171" id="svg_6"/><g opacity="0.4" id="svg_7">
	<g id="svg_8">
		<g id="svg_9">
			<defs>
				<rect id="SVGID_1_" x="25.81599998474121" y="42.82600021362305" width="100.72000122070312" height="84.55000305175781"/>
			</defs>
			<clipPath id="SVGID_2_">
				<use xlink:href="#SVGID_1_" overflow="visible" id="svg_10"/>
			</clipPath>
			<path clip-path="url(#SVGID_2_)" fill="#A69E9F" d="M126.54,77.285c0,0-4.919,4.279-7.904-3.38     c-10.403-26.687-78.285-56.697-92.801,6.079c0,0-0.977,15.104,13.343,31.191c0,0,15.495,18.83,41.391,15.891     c0,0,35.277-2.563,44.713-38.948L126.54,77.285z" id="svg_11"/>
		</g>
	</g>
</g><g opacity="0.7" id="svg_12">
	<g id="svg_13">
		<g id="svg_14">
			<defs>
				<rect id="SVGID_3_" x="87.0459976196289" y="82.73600006103516" width="28.25" height="28.25"/>
			</defs>
			<clipPath id="SVGID_4_">
				<use xlink:href="#SVGID_3_" overflow="visible" id="svg_15"/>
			</clipPath>
			<path clip-path="url(#SVGID_4_)" fill="#FFFFFF" d="M87.041,96.855c0-7.802,6.325-14.125,14.127-14.125     c7.799,0,14.125,6.323,14.125,14.125s-6.326,14.125-14.125,14.125C93.366,110.98,87.041,104.657,87.041,96.855" id="svg_16"/>
		</g>
	</g>
</g></g></svg>