<svg xmlns="http://www.w3.org/2000/svg" xmlns:xlink="http://www.w3.org/1999/xlink" version="1.1" width="184" height="153.125" enable-background="new 0 0 184 153.125" xml:space="preserve" style=""><rect id="backgroundrect" width="100%" height="100%" x="0" y="0" fill="none" stroke="none"/>














<g class="currentLayer" style=""><title>Layer 1</title><path fill="#EF493E" d="M64.983,1.29" id="svg_1"/><line fill="#EF493E" x1="64.98300170898438" y1="1.2899999618530273" x2="182.21099853515625" y2="1.2899999618530273" id="svg_2"/><rect x="76.3479995727539" y="-78.44999694824219" transform="matrix(-0.5835,-0.8121,0.8121,-0.5835,173.3972,-33.3883) " fill="#FFFFFF" width="3.5789999961853027" height="34.5890007019043" id="svg_3"/><rect x="51.49399948120117" y="-76.25900268554688" transform="matrix(-0.8785,0.4778,-0.4778,-0.8785,85.8694,-171.751) " fill="#FFFFFF" width="26.570999145507812" height="2.609999895095825" id="svg_4"/><path fill="#B73835" d="M123.961,9.17H1.297v142.955h122.664c32.186,0,58.279-26.093,58.279-58.28V67.45  C182.24,35.263,156.146,9.17,123.961,9.17" id="svg_5"/><path fill="#f99a9a" d="M118.525,2.154H1.297v142.955h117.229c32.188,0,58.279-26.093,58.279-58.279V60.435  C176.805,28.248,150.713,2.154,118.525,2.154" id="svg_6" class="" fill-opacity="1"/><rect x="1" y="70.20099639892578" fill="#231F20" width="50.888999938964844" height="20.89299964904785" id="svg_7"/><path fill="#C0BEBE" d="M120.625,113.19H62.038c-4.577,0-8.663-2.866-10.224-7.168L29.76,45.189  c-2.571-7.09,2.681-14.581,10.223-14.581H98.57c4.576,0,8.662,2.865,10.223,7.168l22.057,60.832  C133.42,105.699,128.166,113.19,120.625,113.19" id="svg_8"/><path fill="none" stroke="#231F20" stroke-width="3" stroke-miterlimit="10" d="M120.625,113.19H62.038  c-4.577,0-8.663-2.866-10.224-7.168L29.76,45.189c-2.571-7.09,2.681-14.581,10.223-14.581H98.57c4.576,0,8.662,2.865,10.223,7.168  l22.057,60.832C133.42,105.699,128.166,113.19,120.625,113.19z" id="svg_9" class=""/><path fill="#FFFFFF" d="M42.562,64.123c2.55,7.024,14.051,40.13,16.567,43.206c2.516,3.077,63.85,2.257,66.85,0  s2.344-19.387-37.629-17.848C48.376,91.02,35.24,43.955,42.562,64.123" id="svg_10"/><path fill="#231F20" d="M116.672,99.197l-2.445,0.901c-1.441,0.531-3.055-0.213-3.586-1.653L91.333,46.082  c-0.531-1.441,0.213-3.055,1.655-3.586l2.445-0.901c1.441-0.532,3.055,0.212,3.586,1.653l19.307,52.363  C118.857,97.052,118.113,98.666,116.672,99.197" id="svg_11"/><path fill="#231F20" d="M101.09,99.197l-2.447,0.901c-1.441,0.531-3.053-0.213-3.584-1.653L75.75,46.082  c-0.529-1.441,0.215-3.055,1.654-3.586l2.447-0.901c1.439-0.532,3.053,0.212,3.584,1.653l19.307,52.363  C103.273,97.052,102.529,98.666,101.09,99.197" id="svg_12"/><path fill="#231F20" d="M85.505,99.197l-2.445,0.901c-1.441,0.531-3.055-0.213-3.586-1.653L60.168,46.082  c-0.531-1.441,0.213-3.055,1.653-3.586l2.446-0.901c1.44-0.532,3.054,0.212,3.586,1.653L87.16,95.611  C87.691,97.052,86.947,98.666,85.505,99.197" id="svg_13"/><path fill="#231F20" d="M69.922,99.197l-2.445,0.901c-1.44,0.531-3.055-0.213-3.585-1.653L44.585,46.082  c-0.532-1.441,0.212-3.055,1.653-3.586l2.446-0.901c1.44-0.532,3.054,0.212,3.586,1.653l19.306,52.363  C72.107,97.052,71.363,98.666,69.922,99.197" id="svg_14"/></g></svg>